<svg xmlns="http://www.w3.org/2000/svg" xmlns:xlink="http://www.w3.org/1999/xlink" width="118" zoomAndPan="magnify" viewBox="0 0 88.5 30.000001" height="40" preserveAspectRatio="xMidYMid meet" version="1.0"><defs><g/></defs><g fill="#ffffff" fill-opacity="1"><g transform="translate(3.654505, 19.409627)"><g><path d="M 11.0625 -7.179688 L 10.117188 -7.179688 C 10.007812 -7.179688 9.921875 -7.113281 9.867188 -6.992188 L 8.246094 -1.839844 C 8.238281 -1.820312 8.238281 -1.820312 8.238281 -1.820312 L 8.203125 -1.8125 C 8.203125 -1.8125 8.195312 -1.820312 8.195312 -1.828125 L 6.691406 -6.992188 C 6.648438 -7.113281 6.5625 -7.179688 6.449219 -7.179688 L 5.480469 -7.179688 C 5.367188 -7.179688 5.28125 -7.113281 5.230469 -6.992188 L 3.609375 -1.839844 C 3.597656 -1.820312 3.597656 -1.820312 3.597656 -1.820312 L 3.566406 -1.8125 C 3.566406 -1.8125 3.554688 -1.820312 3.554688 -1.828125 L 2.054688 -6.992188 C 2.011719 -7.113281 1.925781 -7.179688 1.804688 -7.179688 L 0.882812 -7.179688 C 0.746094 -7.179688 0.714844 -7.09375 0.703125 -7.050781 C 0.6875 -6.992188 0.6875 -6.921875 0.722656 -6.84375 L 2.5 -0.894531 C 2.515625 -0.851562 2.542969 -0.796875 2.558594 -0.765625 C 2.6875 -0.316406 3.109375 0 3.582031 0 C 3.796875 0 4.003906 -0.0585938 4.175781 -0.179688 C 4.226562 -0.207031 4.261719 -0.242188 4.304688 -0.265625 C 4.421875 -0.378906 4.550781 -0.585938 4.679688 -0.902344 L 5.953125 -4.851562 L 7.136719 -0.894531 C 7.15625 -0.851562 7.179688 -0.796875 7.199219 -0.765625 C 7.328125 -0.316406 7.746094 0 8.21875 0 C 8.433594 0 8.640625 -0.0585938 8.8125 -0.179688 C 8.863281 -0.207031 8.90625 -0.242188 8.941406 -0.265625 C 9.070312 -0.378906 9.191406 -0.585938 9.320312 -0.902344 L 11.234375 -6.84375 C 11.261719 -6.921875 11.269531 -6.992188 11.25 -7.050781 C 11.242188 -7.101562 11.199219 -7.179688 11.0625 -7.179688 Z M 11.0625 -7.179688 "/></g></g></g><g fill="#ffffff" fill-opacity="1"><g transform="translate(15.155409, 19.409627)"><g><path d="M 5.289062 -6.277344 C 5.273438 -6.320312 5.257812 -6.375 5.238281 -6.40625 C 5.101562 -6.855469 4.691406 -7.171875 4.21875 -7.171875 C 4.003906 -7.171875 3.796875 -7.113281 3.625 -6.992188 C 3.574219 -6.964844 3.53125 -6.929688 3.496094 -6.90625 C 3.367188 -6.792969 3.238281 -6.585938 3.117188 -6.277344 L 0.722656 -0.328125 C 0.695312 -0.25 0.6875 -0.171875 0.703125 -0.121094 C 0.714844 -0.0703125 0.753906 0.0078125 0.894531 0.0078125 L 1.839844 0.0078125 C 1.949219 0.0078125 2.035156 -0.0585938 2.078125 -0.171875 L 2.566406 -1.398438 L 4.449219 -1.398438 C 4.542969 -1.398438 4.628906 -1.441406 4.671875 -1.519531 C 4.722656 -1.589844 4.734375 -1.683594 4.707031 -1.769531 L 4.398438 -2.535156 C 4.355469 -2.636719 4.261719 -2.707031 4.148438 -2.707031 L 3.082031 -2.707031 L 4.183594 -5.488281 C 4.191406 -5.503906 4.199219 -5.515625 4.199219 -5.515625 L 4.234375 -5.515625 C 4.234375 -5.515625 4.234375 -5.515625 4.242188 -5.496094 L 6.375 -0.179688 C 6.417969 -0.0585938 6.503906 0.0078125 6.621094 0.0078125 L 7.542969 0.0078125 C 7.679688 0.0078125 7.714844 -0.078125 7.730469 -0.121094 C 7.746094 -0.171875 7.738281 -0.25 7.703125 -0.328125 Z M 5.289062 -6.277344 "/></g></g></g><g fill="#ffffff" fill-opacity="1"><g transform="translate(23.134758, 19.409627)"><g><path d="M 5.644531 -1.269531 L 2.851562 -1.269531 C 2.671875 -1.269531 2.523438 -1.289062 2.40625 -1.332031 C 2.300781 -1.367188 2.214844 -1.425781 2.15625 -1.519531 C 2.085938 -1.613281 2.035156 -1.742188 2.011719 -1.898438 C 1.976562 -2.070312 1.96875 -2.285156 1.96875 -2.542969 L 1.96875 -6.777344 C 1.96875 -7.050781 1.796875 -7.078125 1.726562 -7.078125 L 0.9375 -7.078125 C 0.859375 -7.078125 0.6875 -7.050781 0.6875 -6.777344 L 0.6875 -2.6875 C 0.6875 -2.207031 0.730469 -1.796875 0.808594 -1.460938 C 0.882812 -1.117188 1.003906 -0.832031 1.175781 -0.617188 C 1.347656 -0.394531 1.570312 -0.230469 1.847656 -0.136719 C 2.105469 -0.0429688 2.429688 0.0078125 2.808594 0.0078125 L 5.644531 0.0078125 C 5.71875 0.0078125 5.882812 -0.0273438 5.882812 -0.292969 L 5.882812 -0.96875 C 5.882812 -1.238281 5.71875 -1.269531 5.644531 -1.269531 Z M 5.644531 -1.269531 "/></g></g></g><g fill="#ffffff" fill-opacity="1"><g transform="translate(29.250257, 19.409627)"><g><path d="M 5.644531 -1.269531 L 2.851562 -1.269531 C 2.671875 -1.269531 2.523438 -1.289062 2.40625 -1.332031 C 2.300781 -1.367188 2.214844 -1.425781 2.15625 -1.519531 C 2.085938 -1.613281 2.035156 -1.742188 2.011719 -1.898438 C 1.976562 -2.070312 1.96875 -2.285156 1.96875 -2.542969 L 1.96875 -6.777344 C 1.96875 -7.050781 1.796875 -7.078125 1.726562 -7.078125 L 0.9375 -7.078125 C 0.859375 -7.078125 0.6875 -7.050781 0.6875 -6.777344 L 0.6875 -2.6875 C 0.6875 -2.207031 0.730469 -1.796875 0.808594 -1.460938 C 0.882812 -1.117188 1.003906 -0.832031 1.175781 -0.617188 C 1.347656 -0.394531 1.570312 -0.230469 1.847656 -0.136719 C 2.105469 -0.0429688 2.429688 0.0078125 2.808594 0.0078125 L 5.644531 0.0078125 C 5.71875 0.0078125 5.882812 -0.0273438 5.882812 -0.292969 L 5.882812 -0.96875 C 5.882812 -1.238281 5.71875 -1.269531 5.644531 -1.269531 Z M 5.644531 -1.269531 "/></g></g></g><g fill="#ffffff" fill-opacity="1"><g transform="translate(35.365756, 19.409627)"><g><path d="M 5.847656 -1.539062 L 2.824219 -1.539062 C 2.644531 -1.539062 2.5 -1.5625 2.378906 -1.597656 C 2.265625 -1.640625 2.191406 -1.699219 2.121094 -1.785156 C 2.054688 -1.882812 2 -2.011719 1.976562 -2.171875 C 1.96875 -2.214844 1.96875 -2.277344 1.957031 -2.320312 C 1.957031 -2.320312 1.96875 -2.9375 1.976562 -2.9375 L 5.816406 -2.9375 C 5.882812 -2.9375 6.054688 -2.972656 6.054688 -3.238281 L 6.054688 -3.917969 C 6.054688 -4.183594 5.882812 -4.207031 5.816406 -4.207031 L 1.382812 -4.199219 C 1.132812 -4.183594 0.917969 -4.054688 0.796875 -3.839844 C 0.753906 -3.769531 0.722656 -3.703125 0.703125 -3.625 L 0.6875 -2.542969 L 0.6875 -2.5 C 0.695312 -2.097656 0.738281 -1.753906 0.796875 -1.46875 C 0.875 -1.125 1.003906 -0.839844 1.167969 -0.628906 C 1.339844 -0.402344 1.5625 -0.25 1.839844 -0.15625 C 2.105469 -0.0507812 2.421875 -0.0078125 2.800781 -0.0078125 L 5.847656 -0.0078125 C 5.925781 -0.0078125 6.097656 -0.0351562 6.097656 -0.300781 L 6.097656 -1.246094 C 6.097656 -1.511719 5.925781 -1.539062 5.847656 -1.539062 Z M 5.859375 -7.09375 L 0.917969 -7.09375 C 0.851562 -7.09375 0.6875 -7.058594 0.6875 -6.785156 L 0.6875 -6.117188 C 0.6875 -5.847656 0.851562 -5.824219 0.917969 -5.824219 L 5.859375 -5.816406 C 5.925781 -5.816406 6.097656 -5.847656 6.097656 -6.117188 L 6.097656 -6.792969 C 6.097656 -7.058594 5.925781 -7.09375 5.859375 -7.09375 Z M 5.859375 -7.09375 "/></g></g></g><g fill="#ffffff" fill-opacity="1"><g transform="translate(41.695985, 19.409627)"><g><path d="M 6.621094 -7.078125 L 0.9375 -7.078125 C 0.859375 -7.078125 0.6875 -7.050781 0.6875 -6.785156 L 0.6875 -6.117188 C 0.6875 -5.832031 0.859375 -5.804688 0.9375 -5.804688 L 3.144531 -5.804688 L 3.144531 -0.292969 C 3.144531 -0.0273438 3.316406 0 3.382812 0 L 4.175781 0 C 4.25 0 4.414062 -0.0273438 4.414062 -0.292969 L 4.414062 -5.804688 L 6.621094 -5.804688 C 6.699219 -5.804688 6.871094 -5.832031 6.871094 -6.117188 L 6.871094 -6.785156 C 6.871094 -7.050781 6.699219 -7.078125 6.621094 -7.078125 Z M 6.621094 -7.078125 "/></g></g></g><g fill="#ffffff" fill-opacity="1"><g transform="translate(48.799235, 19.409627)"><g/></g></g><g fill="#ffffff" fill-opacity="1"><g transform="translate(52.758851, 19.409627)"><g><path d="M 4.835938 -4.226562 L 2.257812 -4.226562 C 2.128906 -4.226562 1.96875 -4.277344 1.96875 -4.699219 L 1.96875 -5.332031 C 1.96875 -5.488281 1.992188 -5.609375 2.035156 -5.695312 C 2.070312 -5.746094 2.121094 -5.804688 2.265625 -5.804688 L 5.761719 -5.804688 C 5.832031 -5.804688 6.003906 -5.832031 6.003906 -6.097656 L 6.003906 -6.785156 C 6.003906 -7.050781 5.832031 -7.078125 5.761719 -7.078125 L 2.0625 -7.078125 C 1.589844 -7.078125 1.246094 -6.921875 1.023438 -6.605469 C 0.796875 -6.296875 0.6875 -5.882812 0.6875 -5.386719 L 0.6875 -4.734375 C 0.6875 -4.140625 0.808594 -3.660156 1.023438 -3.359375 C 1.289062 -3.007812 1.683594 -2.953125 2.042969 -2.953125 L 4.621094 -2.953125 C 4.75 -2.953125 4.921875 -2.902344 4.921875 -2.480469 L 4.921875 -1.742188 C 4.921875 -1.589844 4.894531 -1.46875 4.84375 -1.382812 C 4.808594 -1.332031 4.757812 -1.269531 4.613281 -1.269531 L 0.945312 -1.269531 C 0.867188 -1.269531 0.695312 -1.246094 0.695312 -0.980469 L 0.695312 -0.292969 C 0.695312 -0.0273438 0.867188 0 0.945312 0 L 4.820312 0 C 5.289062 0 5.644531 -0.164062 5.867188 -0.480469 C 6.082031 -0.789062 6.191406 -1.195312 6.191406 -1.691406 L 6.191406 -2.449219 C 6.191406 -3.007812 6.082031 -3.445312 5.859375 -3.753906 C 5.625 -4.0625 5.28125 -4.226562 4.835938 -4.226562 Z M 4.835938 -4.226562 "/></g></g></g><g fill="#ffffff" fill-opacity="1"><g transform="translate(59.183552, 19.409627)"><g><path d="M 5.847656 -1.539062 L 2.824219 -1.539062 C 2.644531 -1.539062 2.5 -1.5625 2.378906 -1.597656 C 2.265625 -1.640625 2.191406 -1.699219 2.121094 -1.785156 C 2.054688 -1.882812 2 -2.011719 1.976562 -2.171875 C 1.96875 -2.214844 1.96875 -2.277344 1.957031 -2.320312 C 1.957031 -2.320312 1.96875 -2.9375 1.976562 -2.9375 L 5.816406 -2.9375 C 5.882812 -2.9375 6.054688 -2.972656 6.054688 -3.238281 L 6.054688 -3.917969 C 6.054688 -4.183594 5.882812 -4.207031 5.816406 -4.207031 L 1.382812 -4.199219 C 1.132812 -4.183594 0.917969 -4.054688 0.796875 -3.839844 C 0.753906 -3.769531 0.722656 -3.703125 0.703125 -3.625 L 0.6875 -2.542969 L 0.6875 -2.5 C 0.695312 -2.097656 0.738281 -1.753906 0.796875 -1.46875 C 0.875 -1.125 1.003906 -0.839844 1.167969 -0.628906 C 1.339844 -0.402344 1.5625 -0.25 1.839844 -0.15625 C 2.105469 -0.0507812 2.421875 -0.0078125 2.800781 -0.0078125 L 5.847656 -0.0078125 C 5.925781 -0.0078125 6.097656 -0.0351562 6.097656 -0.300781 L 6.097656 -1.246094 C 6.097656 -1.511719 5.925781 -1.539062 5.847656 -1.539062 Z M 5.859375 -7.09375 L 0.917969 -7.09375 C 0.851562 -7.09375 0.6875 -7.058594 0.6875 -6.785156 L 0.6875 -6.117188 C 0.6875 -5.847656 0.851562 -5.824219 0.917969 -5.824219 L 5.859375 -5.816406 C 5.925781 -5.816406 6.097656 -5.847656 6.097656 -6.117188 L 6.097656 -6.792969 C 6.097656 -7.058594 5.925781 -7.09375 5.859375 -7.09375 Z M 5.859375 -7.09375 "/></g></g></g><g fill="#ffffff" fill-opacity="1"><g transform="translate(65.513781, 19.409627)"><g><path d="M 6.769531 -7.078125 L 6.003906 -7.078125 C 5.925781 -7.078125 5.761719 -7.050781 5.761719 -6.777344 L 5.761719 -1.613281 C 5.761719 -1.605469 5.761719 -1.605469 5.761719 -1.597656 L 5.71875 -1.597656 C 5.710938 -1.597656 5.703125 -1.597656 5.695312 -1.625 L 2.980469 -6.449219 C 2.910156 -6.578125 2.851562 -6.683594 2.792969 -6.757812 C 2.730469 -6.84375 2.671875 -6.914062 2.609375 -6.957031 C 2.542969 -7.007812 2.464844 -7.042969 2.371094 -7.058594 C 2.285156 -7.070312 2.179688 -7.078125 2.070312 -7.078125 L 1.425781 -7.078125 C 1.175781 -7.078125 0.988281 -6.992188 0.867188 -6.835938 C 0.746094 -6.671875 0.6875 -6.390625 0.6875 -5.96875 L 0.6875 -0.292969 C 0.6875 -0.0273438 0.859375 0.0078125 0.9375 0.0078125 L 1.699219 0.0078125 C 1.777344 0.0078125 1.941406 -0.0273438 1.941406 -0.292969 L 1.941406 -5.453125 C 1.941406 -5.460938 1.941406 -5.472656 1.941406 -5.472656 L 1.984375 -5.472656 C 1.984375 -5.472656 1.992188 -5.472656 2.011719 -5.445312 L 4.734375 -0.617188 C 4.800781 -0.480469 4.871094 -0.378906 4.929688 -0.300781 C 4.992188 -0.214844 5.050781 -0.15625 5.117188 -0.113281 C 5.1875 -0.0585938 5.265625 -0.0351562 5.351562 -0.015625 C 5.429688 0 5.523438 0.0078125 5.644531 0.0078125 L 6.269531 0.0078125 C 6.519531 0.0078125 6.707031 -0.078125 6.828125 -0.242188 C 6.949219 -0.394531 7.007812 -0.679688 7.007812 -1.097656 L 7.007812 -6.777344 C 7.007812 -7.050781 6.835938 -7.078125 6.769531 -7.078125 Z M 6.769531 -7.078125 "/></g></g></g><g fill="#ffffff" fill-opacity="1"><g transform="translate(72.754458, 19.409627)"><g><path d="M 4.835938 -4.226562 L 2.257812 -4.226562 C 2.128906 -4.226562 1.96875 -4.277344 1.96875 -4.699219 L 1.96875 -5.332031 C 1.96875 -5.488281 1.992188 -5.609375 2.035156 -5.695312 C 2.070312 -5.746094 2.121094 -5.804688 2.265625 -5.804688 L 5.761719 -5.804688 C 5.832031 -5.804688 6.003906 -5.832031 6.003906 -6.097656 L 6.003906 -6.785156 C 6.003906 -7.050781 5.832031 -7.078125 5.761719 -7.078125 L 2.0625 -7.078125 C 1.589844 -7.078125 1.246094 -6.921875 1.023438 -6.605469 C 0.796875 -6.296875 0.6875 -5.882812 0.6875 -5.386719 L 0.6875 -4.734375 C 0.6875 -4.140625 0.808594 -3.660156 1.023438 -3.359375 C 1.289062 -3.007812 1.683594 -2.953125 2.042969 -2.953125 L 4.621094 -2.953125 C 4.75 -2.953125 4.921875 -2.902344 4.921875 -2.480469 L 4.921875 -1.742188 C 4.921875 -1.589844 4.894531 -1.46875 4.84375 -1.382812 C 4.808594 -1.332031 4.757812 -1.269531 4.613281 -1.269531 L 0.945312 -1.269531 C 0.867188 -1.269531 0.695312 -1.246094 0.695312 -0.980469 L 0.695312 -0.292969 C 0.695312 -0.0273438 0.867188 0 0.945312 0 L 4.820312 0 C 5.289062 0 5.644531 -0.164062 5.867188 -0.480469 C 6.082031 -0.789062 6.191406 -1.195312 6.191406 -1.691406 L 6.191406 -2.449219 C 6.191406 -3.007812 6.082031 -3.445312 5.859375 -3.753906 C 5.625 -4.0625 5.28125 -4.226562 4.835938 -4.226562 Z M 4.835938 -4.226562 "/></g></g></g><g fill="#ffffff" fill-opacity="1"><g transform="translate(79.179159, 19.409627)"><g><path d="M 5.847656 -1.539062 L 2.824219 -1.539062 C 2.644531 -1.539062 2.5 -1.5625 2.378906 -1.597656 C 2.265625 -1.640625 2.191406 -1.699219 2.121094 -1.785156 C 2.054688 -1.882812 2 -2.011719 1.976562 -2.171875 C 1.96875 -2.214844 1.96875 -2.277344 1.957031 -2.320312 C 1.957031 -2.320312 1.96875 -2.9375 1.976562 -2.9375 L 5.816406 -2.9375 C 5.882812 -2.9375 6.054688 -2.972656 6.054688 -3.238281 L 6.054688 -3.917969 C 6.054688 -4.183594 5.882812 -4.207031 5.816406 -4.207031 L 1.382812 -4.199219 C 1.132812 -4.183594 0.917969 -4.054688 0.796875 -3.839844 C 0.753906 -3.769531 0.722656 -3.703125 0.703125 -3.625 L 0.6875 -2.542969 L 0.6875 -2.5 C 0.695312 -2.097656 0.738281 -1.753906 0.796875 -1.46875 C 0.875 -1.125 1.003906 -0.839844 1.167969 -0.628906 C 1.339844 -0.402344 1.5625 -0.25 1.839844 -0.15625 C 2.105469 -0.0507812 2.421875 -0.0078125 2.800781 -0.0078125 L 5.847656 -0.0078125 C 5.925781 -0.0078125 6.097656 -0.0351562 6.097656 -0.300781 L 6.097656 -1.246094 C 6.097656 -1.511719 5.925781 -1.539062 5.847656 -1.539062 Z M 5.859375 -7.09375 L 0.917969 -7.09375 C 0.851562 -7.09375 0.6875 -7.058594 0.6875 -6.785156 L 0.6875 -6.117188 C 0.6875 -5.847656 0.851562 -5.824219 0.917969 -5.824219 L 5.859375 -5.816406 C 5.925781 -5.816406 6.097656 -5.847656 6.097656 -6.117188 L 6.097656 -6.792969 C 6.097656 -7.058594 5.925781 -7.09375 5.859375 -7.09375 Z M 5.859375 -7.09375 "/></g></g></g></svg>